<?xml version="1.0" encoding="UTF-8" standalone="no"?>
<svg width="123px" height="133px" viewBox="0 0 123 133" version="1.1" xmlns="http://www.w3.org/2000/svg" xmlns:xlink="http://www.w3.org/1999/xlink" xmlns:sketch="http://www.bohemiancoding.com/sketch/ns">
    <!-- Generator: Sketch 3.3.3 (12081) - http://www.bohemiancoding.com/sketch -->
    <title>Logo + MCL EU + Line</title>
    <desc>Created with Sketch.</desc>
    <defs></defs>
    <g id="Landing-Copy" stroke="none" stroke-width="1" fill="none" fill-rule="evenodd" sketch:type="MSPage">
        <g id="Large-devices-Desktops-(≥1170px)-Landing-page-rollover-Copy" sketch:type="MSArtboardGroup" transform="translate(-588.000000, -60.000000)">
            <g id="Logo-+-MCL-EU-+-Line" sketch:type="MSLayerGroup" transform="translate(588.538265, 59.808546)">
                <g id="Logo" transform="translate(0.235185, 0.256091)" sketch:type="MSShapeGroup">
                    <g id="Group" transform="translate(25.327638, 47.822436)" fill="#FFFFFF">
                        <path d="M8.67891773,0.740185311 L14.5353607,18.2551623 L14.6055519,18.2551623 L20.1463498,0.740185311 L27.8958018,0.740185311 L27.8958018,26.2101438 L22.7412708,26.2101438 L22.7412708,8.15987018 L22.6710796,8.15987018 L16.5343025,26.2101438 L12.290965,26.2101438 L6.15418794,8.33859444 L6.08399675,8.33859444 L6.08399675,26.2101438 L0.929465707,26.2101438 L0.929465707,0.740185311 L8.67891773,0.740185311" id="Fill-1"></path>
                        <path d="M47.0429253,7.53564944 C46.7147923,7.00035278 46.3061331,6.53120161 45.8152254,6.12644374 C45.3243177,5.72256196 44.7688168,5.40760427 44.1495841,5.18157065 C43.5299208,4.95553704 42.8814058,4.84252023 42.2031781,4.84252023 C40.9638514,4.84252023 39.9118448,5.08651388 39.0471582,5.57362508 C38.182041,6.06117434 37.4809903,6.71518246 36.9431449,7.53564944 C36.4052995,8.35611642 36.0138652,9.28960022 35.7684114,10.3361008 C35.5229575,11.3826014 35.4002306,12.464584 35.4002306,13.5820487 C35.4002306,14.652204 35.5229575,15.6930099 35.7684114,16.7035904 C36.0138652,17.714609 36.4052995,18.6244381 36.9431449,19.4322017 C37.4809903,20.2408413 38.182041,20.8891548 39.0471582,21.376704 C39.9118448,21.8642533 40.9638514,22.1078089 42.2031781,22.1078089 C43.8864748,22.1078089 45.2015907,21.5847776 46.1485259,20.538277 C47.095461,19.4917764 47.6737848,18.1127961 47.8843584,16.400022 L53.2145827,16.400022 C53.0742003,17.9936466 52.7116176,19.4322017 52.1272652,20.7165632 C51.5429127,22.0009248 50.7712402,23.0951728 49.813109,23.9984312 C48.8541164,24.9025656 47.7319186,25.5920558 46.4465155,26.0673396 C45.1606818,26.5430616 43.746523,26.7809225 42.2031781,26.7809225 C40.2860542,26.7809225 38.5618485,26.4418721 37.0309916,25.7642093 C35.4992734,25.0865465 34.2078416,24.1535007 33.1562656,22.9637579 C32.1042589,21.7748912 31.2977062,20.3775128 30.7361766,18.7724989 C30.1755083,17.167047 29.8947436,15.4371889 29.8947436,13.5820487 C29.8947436,11.6795991 30.1755083,9.91382096 30.7361766,8.28471433 C31.2977062,6.65604576 32.1042589,5.23501271 33.1562656,4.0216152 C34.2078416,2.80909378 35.4992734,1.858088 37.0309916,1.16815981 C38.5618485,0.478669673 40.2860542,0.133924603 42.2031781,0.133924603 C43.5824565,0.133924603 44.8859457,0.335865489 46.113215,0.740185311 C47.3404843,1.14494318 48.4394286,1.73324385 49.4096173,2.50596343 C50.3798059,3.27912105 51.18033,4.23582147 51.8116201,5.37737884 C52.4429102,6.51893622 52.8403732,7.82695245 53.0040091,9.30142756 L47.6737848,9.30142756 C47.5803401,8.65924678 47.3697665,8.07094611 47.0429253,7.53564944" id="Fill-2"></path>
                        <path d="M60.7190115,0.740185311 L60.7190115,21.5011101 L72.9223745,21.5011101 L72.9223745,26.2101438 L55.2135245,26.2101438 L55.2135245,0.740185311 L60.7190115,0.740185311" id="Fill-3"></path>
                        <path d="M0.112147417,30.6808785 L4.45280514,30.6808785 L4.45280514,31.0304421 L0.510041042,31.0304421 L0.510041042,33.6613683 L4.21768618,33.6613683 L4.21768618,34.0109319 L0.510041042,34.0109319 L0.510041042,36.8994312 L4.49802032,36.8994312 L4.49802032,37.2489949 L0.112147417,37.2489949 L0.112147417,30.6808785" id="Fill-4"></path>
                        <path d="M5.57414172,30.6808785 L5.57414172,34.6180687 C5.57414172,34.7468553 5.57973979,34.8971063 5.59222779,35.0688218 C5.60428517,35.2405372 5.63399801,35.4170712 5.68265816,35.5979857 C5.73088769,35.7789003 5.79849516,35.9563104 5.88591118,36.1315302 C5.9733272,36.306312 6.09217855,36.4626957 6.24332645,36.6006814 C6.39404373,36.738229 6.57921068,36.8486175 6.79925791,36.9314089 C7.01930514,37.0142002 7.28585942,37.055815 7.59978199,37.055815 C7.99767561,37.055815 8.33054549,36.9993066 8.59882226,36.8854137 C8.86709902,36.7723968 9.0841319,36.6098804 9.24992092,36.3983024 C9.41570993,36.1867245 9.53499189,35.9304654 9.60733618,35.6299634 C9.67924986,35.3294613 9.71585263,34.9921631 9.71585263,34.6180687 L9.71585263,30.6808785 L10.1137463,30.6808785 L10.1137463,34.6180687 C10.1137463,35.0105612 10.0728373,35.3754565 9.99144994,35.7127548 C9.91006261,36.050053 9.77312519,36.3444223 9.58020707,36.5958628 C9.38685833,36.8473033 9.12934709,37.0453018 8.80681211,37.1889821 C8.48427712,37.3331004 8.08207729,37.4053786 7.59978199,37.4053786 C7.21997444,37.4053786 6.89442511,37.356317 6.623134,37.2581939 C6.35184289,37.1600708 6.12705883,37.0325983 5.94921244,36.8762146 C5.77136605,36.7202689 5.63141428,36.5406686 5.52892653,36.3382896 C5.42643878,36.1359107 5.34806579,35.9322176 5.29380757,35.7263343 C5.23954935,35.5213271 5.20639155,35.3220145 5.19433417,35.1288346 C5.18227678,34.9352166 5.17624809,34.7652534 5.17624809,34.6180687 L5.17624809,30.6808785 L5.57414172,30.6808785" id="Fill-5"></path>
                        <path d="M13.7671332,30.6808785 L14.1645962,30.6808785 L14.1645962,36.8994312 L17.8270261,36.8994312 L17.8270261,37.2489949 L13.7671332,37.2489949 L13.7671332,30.6808785" id="Fill-6"></path>
                        <path d="M20.2053448,30.6808785 L20.6398412,30.6808785 L23.189547,37.2489949 L22.7645243,37.2489949 L21.9510816,35.1424141 L18.8579323,35.1424141 L18.035016,37.2489949 L17.6099932,37.2489949 L20.2053448,30.6808785 L20.2053448,30.6808785 Z M21.8244791,34.7928505 L20.4404638,31.0764373 L20.4223777,31.0764373 L18.9845348,34.7928505 L21.8244791,34.7928505 L21.8244791,34.7928505 Z" id="Fill-7"></path>
                        <path d="M23.9401191,30.6808785 L23.9401191,34.6180687 C23.9401191,34.7468553 23.9461478,34.8971063 23.9582052,35.0688218 C23.9702625,35.2405372 24.000406,35.4170712 24.0486355,35.5979857 C24.0968651,35.7789003 24.1649031,35.9563104 24.2523192,36.1315302 C24.3393046,36.306312 24.4585865,36.4626957 24.6093038,36.6006814 C24.7600211,36.738229 24.945188,36.8486175 25.1652353,36.9314089 C25.3857131,37.0142002 25.6522674,37.055815 25.9657594,37.055815 C26.363653,37.055815 26.6969535,36.9993066 26.9647996,36.8854137 C27.2330764,36.7723968 27.4505399,36.6098804 27.6163289,36.3983024 C27.7816873,36.1867245 27.9009693,35.9304654 27.9733135,35.6299634 C28.0456578,35.3294613 28.08183,34.9921631 28.08183,34.6180687 L28.08183,30.6808785 L28.4797236,30.6808785 L28.4797236,34.6180687 C28.4797236,35.0105612 28.4388146,35.3754565 28.3574273,35.7127548 C28.2764706,36.050053 28.1391026,36.3444223 27.9461844,36.5958628 C27.7532663,36.8473033 27.4957551,37.0453018 27.1732201,37.1889821 C26.8502545,37.3331004 26.4480547,37.4053786 25.9657594,37.4053786 C25.5859518,37.4053786 25.2604025,37.356317 24.9891114,37.2581939 C24.7178203,37.1600708 24.4930362,37.0325983 24.3156204,36.8762146 C24.137774,36.7202689 23.9973916,36.5406686 23.8949039,36.3382896 C23.7924161,36.1359107 23.7140432,35.9322176 23.6597849,35.7263343 C23.6055267,35.5213271 23.5723689,35.3220145 23.5603115,35.1288346 C23.5482541,34.9352166 23.5422255,34.7652534 23.5422255,34.6180687 L23.5422255,30.6808785 L23.9401191,30.6808785" id="Fill-8"></path>
                        <path d="M29.6191463,30.6808785 L30.1165133,30.6808785 L34.1949229,36.7062513 L34.213009,36.7062513 L34.213009,30.6808785 L34.6109026,30.6808785 L34.6109026,37.2489949 L34.1406647,37.2489949 L30.035126,31.1776268 L30.0170399,31.1776268 L30.0170399,37.2489949 L29.6191463,37.2489949 L29.6191463,30.6808785" id="Fill-9"></path>
                        <path d="M35.5061633,33.9649367 C35.5061633,33.4865865 35.5754933,33.0375856 35.7137225,32.6170579 C35.8528131,32.1974064 36.0530517,31.832511 36.3152998,31.5228099 C36.5775479,31.2131088 36.9000829,30.9691152 37.2829047,30.791267 C37.6657266,30.6134188 38.0985006,30.5244948 38.5807959,30.5244948 C38.9606034,30.5244948 39.2891671,30.5753085 39.5664869,30.676498 C39.8433761,30.7776875 40.0772032,30.9034077 40.2671069,31.0536587 C40.4570107,31.2039098 40.6120342,31.3677403 40.7330386,31.5455885 C40.8536125,31.7234366 40.9453347,31.8907716 41.008636,32.0471553 C41.0719372,32.2035391 41.1154299,32.3384583 41.1399753,32.4514752 C41.1640901,32.5653681 41.1757168,32.6280092 41.1757168,32.6402746 L40.7782538,32.6402746 C40.736053,32.3643033 40.6482063,32.1176813 40.5160058,31.8999707 C40.3833745,31.68226 40.2171549,31.4965269 40.0186387,31.3432096 C39.8196919,31.1903302 39.5979222,31.073371 39.3537602,30.9936459 C39.1095982,30.9139209 38.852087,30.8740584 38.5807959,30.8740584 C38.1587875,30.8740584 37.7819943,30.9568498 37.4504162,31.1224325 C37.1188382,31.2880153 36.8385041,31.5105445 36.6094138,31.7895821 C36.3798929,32.0686198 36.2054915,32.3949667 36.0849177,32.7690611 C35.9643438,33.1431555 35.9040569,33.5417807 35.9040569,33.9649367 C35.9040569,34.3880926 35.9643438,34.7867178 36.0849177,35.1608122 C36.2054915,35.5349066 36.3798929,35.8616916 36.6094138,36.1407293 C36.8385041,36.4197669 37.1188382,36.641858 37.4504162,36.8074408 C37.7819943,36.9730236 38.1587875,37.055815 38.5807959,37.055815 C38.8942878,37.055815 39.1879712,36.9901075 39.4622766,36.8582546 C39.7365821,36.7264016 39.9760073,36.5516198 40.1814134,36.3339092 C40.3863889,36.1161985 40.5504554,35.8643199 40.6740436,35.5795877 C40.7976318,35.2944173 40.8686842,34.9982958 40.8867703,34.691661 L41.2846639,34.691661 C41.2484917,35.0841535 41.1533245,35.4459825 40.9995929,35.7771481 C40.8458613,36.1083136 40.6499288,36.3952361 40.4117955,36.6374776 C40.1736622,36.879719 39.8976343,37.0680804 39.584573,37.2029996 C39.271081,37.3379189 38.936058,37.4053786 38.5807959,37.4053786 C38.0985006,37.4053786 37.6657266,37.3164545 37.2829047,37.1386063 C36.9000829,36.9607582 36.5775479,36.7172026 36.3152998,36.4075015 C36.0530517,36.0978004 35.8528131,35.732905 35.7137225,35.3128154 C35.5754933,34.8927258 35.5061633,34.4432869 35.5061633,33.9649367" id="Fill-10"></path>
                        <path d="M42.1166233,30.6808785 L42.5140863,30.6808785 L42.5140863,33.6613683 L46.6381418,33.6613683 L46.6381418,30.6808785 L47.0356048,30.6808785 L47.0356048,37.2489949 L46.6381418,37.2489949 L46.6381418,34.0109319 L42.5140863,34.0109319 L42.5140863,37.2489949 L42.1166233,37.2489949 L42.1166233,30.6808785" id="Fill-11"></path>
                        <path d="M49.9926778,31.0304421 L49.9926778,30.6808785 L54.939219,30.6808785 L54.939219,31.0304421 L52.6603737,31.0304421 L52.6603737,37.2489949 L52.2624801,37.2489949 L52.2624801,31.0304421 L49.9926778,31.0304421" id="Fill-12"></path>
                        <path d="M55.3823278,30.6808785 L59.7229856,30.6808785 L59.7229856,31.0304421 L55.7802215,31.0304421 L55.7802215,33.6613683 L59.4878666,33.6613683 L59.4878666,34.0109319 L55.7802215,34.0109319 L55.7802215,36.8994312 L59.7682007,36.8994312 L59.7682007,37.2489949 L55.3823278,37.2489949 L55.3823278,30.6808785" id="Fill-13"></path>
                        <path d="M62.3635523,30.6808785 L62.7976181,30.6808785 L65.3477545,37.2489949 L64.9227318,37.2489949 L64.1088585,35.1424141 L61.0161398,35.1424141 L60.1932235,37.2489949 L59.7682007,37.2489949 L62.3635523,30.6808785 L62.3635523,30.6808785 Z M63.9822559,34.7928505 L62.5986713,31.0764373 L62.5805852,31.0764373 L61.1427424,34.7928505 L63.9822559,34.7928505 L63.9822559,34.7928505 Z" id="Fill-14"></path>
                        <path d="M65.8089494,30.6808785 L66.3782301,30.6808785 L68.9012374,36.7982418 L68.9193235,36.7982418 L71.4152017,30.6808785 L71.984913,30.6808785 L71.984913,37.2489949 L71.58745,37.2489949 L71.58745,31.1776268 L71.5693639,31.1776268 L69.1092273,37.2489949 L68.7113336,37.2489949 L66.2244985,31.1776268 L66.206843,31.1776268 L66.206843,37.2489949 L65.8089494,37.2489949 L65.8089494,30.6808785" id="Fill-15"></path>
                    </g>
                    <g id="Fill-16-+-Fill-17">
                        <path d="M61.0435136,116.303933 C31.7724949,116.303933 8.04399665,92.1660832 8.04399665,62.3905347 C8.04399665,11.5364754 61.0435136,8.63921508 61.0435136,8.63921508 C27.3302107,8.63921508 0,36.4409119 0,70.7358185 C0,105.030725 27.3302107,132.832422 61.0435136,132.832422 L61.0435136,116.303933" id="Fill-16" fill="#FDC600"></path>
                        <path d="M61.0435136,16.879805 C90.3141016,16.879805 114.04303,41.0176545 114.04303,70.793641 C114.04303,121.6477 61.0435136,124.544961 61.0435136,124.544961 C94.7568164,124.544961 122.087027,96.7432639 122.087027,62.4483573 C122.087027,28.1534506 94.7568164,0.351753864 61.0435136,0.351753864 L61.0435136,16.879805" id="Fill-17" fill="#00B5E2"></path>
                    </g>
                </g>
            </g>
        </g>
    </g>
</svg>